<svg xmlns="http://www.w3.org/2000/svg" xmlns:xlink="http://www.w3.org/1999/xlink" xmlns:lucid="lucid" width="1040" height="1180"><g transform="translate(-280 -240)" lucid:page-tab-id="0eqBfotfVGlV"><path d="M300 300v-35c0-2.76 2.24-5 5-5h990c2.76 0 5 2.24 5 5v35" fill="#fff"/><path d="M305 300c-2.76 0-5-2.24-5-5v-30c0-2.76 2.24-5 5-5h990c2.76 0 5 2.24 5 5v30c0 2.76-2.24 5-5 5zM300 300v1095c0 2.76 2.24 5 5 5h990c2.76 0 5-2.24 5-5V300M300 300h1000M620 260v1140M980 260v1140" stroke="#666" fill="none"/><use xlink:href="#a" transform="matrix(1,0,0,1,300,260) translate(137.075 23.6)"/><use xlink:href="#b" transform="matrix(1,0,0,1,620,260) translate(155 23.6)"/><use xlink:href="#c" transform="matrix(1,0,0,1,979.9999999999999,260) translate(116.07499999999999 23.6)"/><path d="M520 376.12c22.1 0 40 20.36 40 45.5 0 25.1-17.9 45.48-40 45.48H400c-22.1 0-40-20.37-40-45.5 0-25.12 17.9-45.48 40-45.48z" stroke="#000" stroke-opacity="0" fill="#780000"/><use xlink:href="#d" transform="matrix(1,0,0,1,360,376.11562128016976) translate(2.125 49.1)"/><use xlink:href="#e" transform="matrix(1,0,0,1,360,376.11562128016976) translate(58.025000000000006 49.1)"/><use xlink:href="#f" transform="matrix(1,0,0,1,360,376.11562128016976) translate(102.025 49.1)"/><use xlink:href="#g" transform="matrix(1,0,0,1,360,376.11562128016976) translate(122.025 49.1)"/><path d="M380 527.4c0-2.77 2.24-5 5-5h150c2.76 0 5 2.23 5 5v126.46c0 2.76-2.24 5-5 5H385c-2.76 0-5-2.24-5-5z" stroke="#000" stroke-opacity="0" fill="#c82208"/><use xlink:href="#h" transform="matrix(1,0,0,1,380,522.3901310840913) translate(35.575 61.3)"/><use xlink:href="#i" transform="matrix(1,0,0,1,380,522.3901310840913) translate(86.525 61.3)"/><use xlink:href="#j" transform="matrix(1,0,0,1,380,522.3901310840913) translate(36.574999999999996 82.9)"/><path d="M380 745c0-2.76 2.24-5 5-5h150c2.76 0 5 2.24 5 5v126.47c0 2.76-2.24 5-5 5H385c-2.76 0-5-2.24-5-5z" stroke="#000" stroke-opacity="0" fill="#e25c18"/><use xlink:href="#k" transform="matrix(1,0,0,1,380,740) translate(28.049999999999997 72.10000000000001)"/><use xlink:href="#l" transform="matrix(1,0,0,1,380,740) translate(87.95 72.10000000000001)"/><path d="M380 986.2c0-2.77 2.24-5 5-5h150c2.76 0 5 2.23 5 5v126.47c0 2.76-2.24 5-5 5H385c-2.76 0-5-2.24-5-5z" stroke="#000" stroke-opacity="0" fill="#fe9828"/><use xlink:href="#m" transform="matrix(1,0,0,1,380,981.1950655420455) translate(37.099999999999994 72.10000000000001)"/><use xlink:href="#n" transform="matrix(1,0,0,1,380,981.1950655420455) translate(96 72.10000000000001)"/><path d="M796.1 972.94c2.15-1.72 5.65-1.72 7.8 0l92.2 73.38c2.15 1.72 2.15 4.5 0 6.22l-92.2 73.38c-2.15 1.72-5.65 1.72-7.8 0l-92.2-73.38c-2.15-1.72-2.15-4.5 0-6.22z" stroke="#780000" stroke-width="4" fill-opacity="0"/><use xlink:href="#o" transform="matrix(1,0,0,1,722,991.8225165224377) translate(20.549999999999997 61.6)"/><use xlink:href="#p" transform="matrix(1,0,0,1,722,991.8225165224377) translate(39.55 61.6)"/><use xlink:href="#q" transform="matrix(1,0,0,1,722,991.8225165224377) translate(88.55 61.6)"/><path d="M1060 986.2c0-2.77 2.24-5 5-5h150c2.76 0 5 2.23 5 5v110c0 2.76-2.24 5-5 5h-150c-2.76 0-5-2.24-5-5z" stroke="#000" stroke-opacity="0" fill="#ffbc44"/><use xlink:href="#r" transform="matrix(1,0,0,1,1060,981.1950655420455) translate(62.525 63.6)"/><path d="M508.07 1168.83c17.63 0 31.93 17.9 31.93 40s-14.3 40-31.93 40h-95.8c-17.64 0-31.94-17.9-31.94-40s14.3-40 31.94-40z" stroke="#000" stroke-opacity="0" fill="#780000"/><use xlink:href="#s" transform="matrix(1,0,0,1,380.33333333330006,1168.8328268886698) translate(22.074999999999996 44.1)"/><use xlink:href="#t" transform="matrix(1,0,0,1,380.33333333330006,1168.8328268886698) translate(57.074999999999996 44.1)"/><path d="M460 467.1v37.05M460 467.1v-3" stroke="#999" stroke-width="2" fill="none"/><path d="M460 519.15l-4.64-14.26h9.28z" stroke="#999" stroke-width="2" fill="#999"/><path d="M1060 745c0-2.76 2.24-5 5-5h150c2.76 0 5 2.24 5 5v126.47c0 2.76-2.24 5-5 5h-150c-2.76 0-5-2.24-5-5z" stroke="#000" stroke-opacity="0" fill="#e25c18"/><use xlink:href="#u" transform="matrix(1,0,0,1,1060,740) translate(34 72.10000000000001)"/><use xlink:href="#l" transform="matrix(1,0,0,1,1060,740) translate(82 72.10000000000001)"/><path d="M508.07 1300c17.63 0 31.93 17.95 31.93 40.08 0 22.14-14.3 40.1-31.93 40.1h-95.8c-17.64 0-31.94-17.96-31.94-40.1 0-22.13 14.3-40.08 31.94-40.08z" stroke="#000" stroke-opacity="0" fill="#780000"/><use xlink:href="#v" transform="matrix(1,0,0,1,380.33333333330006,1300) translate(4.6499999999999915 33.3)"/><use xlink:href="#w" transform="matrix(1,0,0,1,380.33333333330006,1300) translate(74.55 33.3)"/><use xlink:href="#x" transform="matrix(1,0,0,1,380.33333333330006,1300) translate(60.55 54.9)"/><path d="M1141 1335.24l-1.1 3.4-2.92 2.14-1.9.3H558.24v-2h576.68l1.26-.2 2-1.46.82-2.5V1101.2h2zM1141 1101.2h-2v-3h2zM557.5 1344.72l-14.26-4.64 14.26-4.63z" fill="#999"/><path d="M558.5 1346.1l-18.5-6.02 18.5-6zm-12.03-6.02l10.03 3.26v-6.52z" fill="#999"/><path d="M1060 527.4c0-2.77 2.24-5 5-5h150c2.76 0 5 2.23 5 5v126.46c0 2.76-2.24 5-5 5h-150c-2.76 0-5-2.24-5-5z" stroke="#000" stroke-opacity="0" fill="#e25c18"/><use xlink:href="#y" transform="matrix(1,0,0,1,1060,522.3901310840913) translate(43.725 61.3)"/><use xlink:href="#z" transform="matrix(1,0,0,1,1060,522.3901310840913) translate(36.574999999999996 82.9)"/><path d="M540 590.63h501.76M540 590.63h-3" stroke="#999" stroke-width="2" fill="none"/><path d="M1056.76 590.63l-14.26 4.63V586z" stroke="#999" stroke-width="2" fill="#999"/><path d="M1140 658.86v62.9M1140 658.86v-3" stroke="#999" stroke-width="2" fill="none"/><path d="M1140 736.76l-4.64-14.26h9.28z" stroke="#999" stroke-width="2" fill="#999"/><path d="M1060 808.24H558.24M1060 808.24h3" stroke="#999" stroke-width="2" fill="none"/><path d="M543.24 808.24l14.26-4.64v9.27z" stroke="#999" stroke-width="2" fill="#999"/><path d="M540 1049.43H682.23M540 1049.43h-3" stroke="#999" stroke-width="2" fill="none"/><path d="M697.22 1049.43l-14.27 4.64v-9.27z" stroke="#999" stroke-width="2" fill="#999"/><path d="M460 876.47v86.5M460 876.47v-3" stroke="#999" stroke-width="2" fill="none"/><path d="M460 977.96l-4.64-14.27h9.28z" stroke="#999" stroke-width="2" fill="#999"/><path d="M964.27 1050.43h-64.73v-2h64.73zm77.5-8.23h-46.5v-2h46.5zM899.54 1050.43h-3v-2h3zM1056.76 1041.2l-14.26 4.63v-9.27z" fill="#999"/><path d="M1060 1041.2l-18.5 6v-12.02zm-16.5 3.25l10.03-3.25-10.03-3.26z" fill="#999"/><g><use xlink:href="#A" transform="matrix(1,0,0,1,964.2723930576838,1034.512712600869) translate(0.005000000000000782 14.4)"/></g><path d="M697.86 1209.83H558.24v-2h139.62zM801 1204l-1.1 3.4-2.92 2.13-1.9.3h-73.32v-2h73.16l1.26-.2 2-1.46.82-2.5v-74.45h2zM801 1129.22h-2v-3h2zM557.5 1213.47l-14.26-4.64 14.26-4.63z" fill="#999"/><path d="M558.5 1214.84l-18.5-6 18.5-6.02zm-12.03-6l10.03 3.25v-6.53z" fill="#999"/><g><use xlink:href="#B" transform="matrix(1,0,0,1,697.8563045022316,1198.03282688867) translate(0.005000000000000782 14.4)"/></g><defs><path fill="#333" d="M212-179c-10-28-35-45-73-45-59 0-87 40-87 99 0 60 29 101 89 101 43 0 62-24 78-52l27 14C228-24 195 4 139 4 59 4 22-46 18-125c-6-104 99-153 187-111 19 9 31 26 39 46" id="C"/><path fill="#333" d="M24 0v-261h32V0H24" id="D"/><path fill="#333" d="M24-231v-30h32v30H24zM24 0v-190h32V0H24" id="E"/><path fill="#333" d="M100-194c63 0 86 42 84 106H49c0 40 14 67 53 68 26 1 43-12 49-29l28 8c-11 28-37 45-77 45C44 4 14-33 15-96c1-61 26-98 85-98zm52 81c6-60-76-77-97-28-3 7-6 17-6 28h103" id="F"/><path fill="#333" d="M117-194c89-4 53 116 60 194h-32v-121c0-31-8-49-39-48C34-167 62-67 57 0H25l-1-190h30c1 10-1 24 2 32 11-22 29-35 61-36" id="G"/><path fill="#333" d="M59-47c-2 24 18 29 38 22v24C64 9 27 4 27-40v-127H5v-23h24l9-43h21v43h35v23H59v120" id="H"/><g id="a"><use transform="matrix(0.05,0,0,0.05,0,0)" xlink:href="#C"/><use transform="matrix(0.05,0,0,0.05,12.950000000000001,0)" xlink:href="#D"/><use transform="matrix(0.05,0,0,0.05,16.900000000000002,0)" xlink:href="#E"/><use transform="matrix(0.05,0,0,0.05,20.85,0)" xlink:href="#F"/><use transform="matrix(0.05,0,0,0.05,30.85,0)" xlink:href="#G"/><use transform="matrix(0.05,0,0,0.05,40.85,0)" xlink:href="#H"/></g><path fill="#333" d="M30 0v-248h187v28H63v79h144v27H63v87h162V0H30" id="I"/><path fill="#333" d="M108 0H70L1-190h34L89-25l56-165h34" id="J"/><path fill="#333" d="M100-194c62-1 85 37 85 99 1 63-27 99-86 99S16-35 15-95c0-66 28-99 85-99zM99-20c44 1 53-31 53-75 0-43-8-75-51-75s-53 32-53 75 10 74 51 75" id="K"/><path fill="#333" d="M179-190L93 31C79 59 56 82 12 73V49c39 6 53-20 64-50L1-190h34L92-34l54-156h33" id="L"/><g id="b"><use transform="matrix(0.05,0,0,0.05,0,0)" xlink:href="#I"/><use transform="matrix(0.05,0,0,0.05,12,0)" xlink:href="#G"/><use transform="matrix(0.05,0,0,0.05,22,0)" xlink:href="#J"/><use transform="matrix(0.05,0,0,0.05,31,0)" xlink:href="#K"/><use transform="matrix(0.05,0,0,0.05,41,0)" xlink:href="#L"/></g><path fill="#333" d="M205 0l-28-72H64L36 0H1l101-248h38L239 0h-34zm-38-99l-47-123c-12 45-31 82-46 123h93" id="M"/><path fill="#333" d="M115-194c55 1 70 41 70 98S169 2 115 4C84 4 66-9 55-30l1 105H24l-1-265h31l2 30c10-21 28-34 59-34zm-8 174c40 0 45-34 45-75s-6-73-45-74c-42 0-51 32-51 76 0 43 10 73 51 73" id="N"/><path fill="#333" d="M96-169c-40 0-48 33-48 73s9 75 48 75c24 0 41-14 43-38l32 2c-6 37-31 61-74 61-59 0-76-41-82-99-10-93 101-131 147-64 4 7 5 14 7 22l-32 3c-4-21-16-35-41-35" id="O"/><path fill="#333" d="M141-36C126-15 110 5 73 4 37 3 15-17 15-53c-1-64 63-63 125-63 3-35-9-54-41-54-24 1-41 7-42 31l-33-3c5-37 33-52 76-52 45 0 72 20 72 64v82c-1 20 7 32 28 27v20c-31 9-61-2-59-35zM48-53c0 20 12 33 32 33 41-3 63-29 60-74-43 2-92-5-92 41" id="P"/><g id="c"><use transform="matrix(0.05,0,0,0.05,0,0)" xlink:href="#M"/><use transform="matrix(0.05,0,0,0.05,12,0)" xlink:href="#N"/><use transform="matrix(0.05,0,0,0.05,22,0)" xlink:href="#N"/><use transform="matrix(0.05,0,0,0.05,32,0)" xlink:href="#D"/><use transform="matrix(0.05,0,0,0.05,35.95,0)" xlink:href="#E"/><use transform="matrix(0.05,0,0,0.05,39.900000000000006,0)" xlink:href="#O"/><use transform="matrix(0.05,0,0,0.05,48.900000000000006,0)" xlink:href="#P"/><use transform="matrix(0.05,0,0,0.05,58.900000000000006,0)" xlink:href="#H"/><use transform="matrix(0.05,0,0,0.05,63.900000000000006,0)" xlink:href="#E"/><use transform="matrix(0.05,0,0,0.05,67.85000000000001,0)" xlink:href="#K"/><use transform="matrix(0.05,0,0,0.05,77.85000000000001,0)" xlink:href="#G"/></g><path fill="#fff" d="M205 0l-28-72H64L36 0H1l101-248h38L239 0h-34zm-38-99l-47-123c-12 45-31 82-46 123h93" id="Q"/><path fill="#fff" d="M85-194c31 0 48 13 60 33l-1-100h32l1 261h-30c-2-10 0-23-3-31C134-8 116 4 85 4 32 4 16-35 15-94c0-66 23-100 70-100zm9 24c-40 0-46 34-46 75 0 40 6 74 45 74 42 0 51-32 51-76 0-42-9-74-50-73" id="R"/><path fill="#fff" d="M210-169c-67 3-38 105-44 169h-31v-121c0-29-5-50-35-48C34-165 62-65 56 0H25l-1-190h30c1 10-1 24 2 32 10-44 99-50 107 0 11-21 27-35 58-36 85-2 47 119 55 194h-31v-121c0-29-5-49-35-48" id="S"/><path fill="#fff" d="M24-231v-30h32v30H24zM24 0v-190h32V0H24" id="T"/><path fill="#fff" d="M117-194c89-4 53 116 60 194h-32v-121c0-31-8-49-39-48C34-167 62-67 57 0H25l-1-190h30c1 10-1 24 2 32 11-22 29-35 61-36" id="U"/><g id="d"><use transform="matrix(0.05,0,0,0.05,0,0)" xlink:href="#Q"/><use transform="matrix(0.05,0,0,0.05,12,0)" xlink:href="#R"/><use transform="matrix(0.05,0,0,0.05,22,0)" xlink:href="#S"/><use transform="matrix(0.05,0,0,0.05,36.95,0)" xlink:href="#T"/><use transform="matrix(0.05,0,0,0.05,40.900000000000006,0)" xlink:href="#U"/></g><path fill="#fff" d="M177-190C167-65 218 103 67 71c-23-6-38-20-44-43l32-5c15 47 100 32 89-28v-30C133-14 115 1 83 1 29 1 15-40 15-95c0-56 16-97 71-98 29-1 48 16 59 35 1-10 0-23 2-32h30zM94-22c36 0 50-32 50-73 0-42-14-75-50-75-39 0-46 34-46 75s6 73 46 73" id="V"/><path fill="#fff" d="M100-194c62-1 85 37 85 99 1 63-27 99-86 99S16-35 15-95c0-66 28-99 85-99zM99-20c44 1 53-31 53-75 0-43-8-75-51-75s-53 32-53 75 10 74 51 75" id="W"/><path fill="#fff" d="M100-194c63 0 86 42 84 106H49c0 40 14 67 53 68 26 1 43-12 49-29l28 8c-11 28-37 45-77 45C44 4 14-33 15-96c1-61 26-98 85-98zm52 81c6-60-76-77-97-28-3 7-6 17-6 28h103" id="X"/><path fill="#fff" d="M135-143c-3-34-86-38-87 0 15 53 115 12 119 90S17 21 10-45l28-5c4 36 97 45 98 0-10-56-113-15-118-90-4-57 82-63 122-42 12 7 21 19 24 35" id="Y"/><g id="e"><use transform="matrix(0.05,0,0,0.05,0,0)" xlink:href="#V"/><use transform="matrix(0.05,0,0,0.05,10,0)" xlink:href="#W"/><use transform="matrix(0.05,0,0,0.05,20,0)" xlink:href="#X"/><use transform="matrix(0.05,0,0,0.05,30,0)" xlink:href="#Y"/></g><path fill="#fff" d="M59-47c-2 24 18 29 38 22v24C64 9 27 4 27-40v-127H5v-23h24l9-43h21v43h35v23H59v120" id="Z"/><g id="f"><use transform="matrix(0.05,0,0,0.05,0,0)" xlink:href="#Z"/><use transform="matrix(0.05,0,0,0.05,5,0)" xlink:href="#W"/></g><path fill="#fff" d="M141-36C126-15 110 5 73 4 37 3 15-17 15-53c-1-64 63-63 125-63 3-35-9-54-41-54-24 1-41 7-42 31l-33-3c5-37 33-52 76-52 45 0 72 20 72 64v82c-1 20 7 32 28 27v20c-31 9-61-2-59-35zM48-53c0 20 12 33 32 33 41-3 63-29 60-74-43 2-92-5-92 41" id="aa"/><path fill="#fff" d="M115-194c55 1 70 41 70 98S169 2 115 4C84 4 66-9 55-30l1 105H24l-1-265h31l2 30c10-21 28-34 59-34zm-8 174c40 0 45-34 45-75s-6-73-45-74c-42 0-51 32-51 76 0 43 10 73 51 73" id="ab"/><path fill="#fff" d="M24 0v-261h32V0H24" id="ac"/><path fill="#fff" d="M96-169c-40 0-48 33-48 73s9 75 48 75c24 0 41-14 43-38l32 2c-6 37-31 61-74 61-59 0-76-41-82-99-10-93 101-131 147-64 4 7 5 14 7 22l-32 3c-4-21-16-35-41-35" id="ad"/><g id="g"><use transform="matrix(0.05,0,0,0.05,0,0)" xlink:href="#aa"/><use transform="matrix(0.05,0,0,0.05,10,0)" xlink:href="#ab"/><use transform="matrix(0.05,0,0,0.05,20,0)" xlink:href="#ab"/><use transform="matrix(0.05,0,0,0.05,30,0)" xlink:href="#ac"/><use transform="matrix(0.05,0,0,0.05,33.95,0)" xlink:href="#T"/><use transform="matrix(0.05,0,0,0.05,37.900000000000006,0)" xlink:href="#ad"/><use transform="matrix(0.05,0,0,0.05,46.900000000000006,0)" xlink:href="#aa"/><use transform="matrix(0.05,0,0,0.05,56.900000000000006,0)" xlink:href="#Z"/><use transform="matrix(0.05,0,0,0.05,61.900000000000006,0)" xlink:href="#T"/><use transform="matrix(0.05,0,0,0.05,65.85000000000001,0)" xlink:href="#W"/></g><path fill="#fff" d="M143 4C61 4 22-44 18-125c-5-107 100-154 193-111 17 8 29 25 37 43l-32 9c-13-25-37-40-76-40-61 0-88 39-88 99 0 61 29 100 91 101 35 0 62-11 79-27v-45h-74v-28h105v86C228-13 192 4 143 4" id="ae"/><path fill="#fff" d="M108 0H70L1-190h34L89-25l56-165h34" id="af"/><g id="h"><use transform="matrix(0.05,0,0,0.05,0,0)" xlink:href="#ae"/><use transform="matrix(0.05,0,0,0.05,14,0)" xlink:href="#T"/><use transform="matrix(0.05,0,0,0.05,17.95,0)" xlink:href="#af"/><use transform="matrix(0.05,0,0,0.05,26.950000000000003,0)" xlink:href="#X"/><use transform="matrix(0.05,0,0,0.05,36.95,0)" xlink:href="#Y"/></g><g id="i"><use transform="matrix(0.05,0,0,0.05,0,0)" xlink:href="#ac"/><use transform="matrix(0.05,0,0,0.05,3.95,0)" xlink:href="#W"/><use transform="matrix(0.05,0,0,0.05,13.949999999999998,0)" xlink:href="#V"/><use transform="matrix(0.05,0,0,0.05,23.95,0)" xlink:href="#T"/><use transform="matrix(0.05,0,0,0.05,27.899999999999995,0)" xlink:href="#U"/></g><path fill="#fff" d="M114-163C36-179 61-72 57 0H25l-1-190h30c1 12-1 29 2 39 6-27 23-49 58-41v29" id="ag"/><g id="j"><use transform="matrix(0.05,0,0,0.05,0,0)" xlink:href="#ad"/><use transform="matrix(0.05,0,0,0.05,9,0)" xlink:href="#ag"/><use transform="matrix(0.05,0,0,0.05,14.949999999999998,0)" xlink:href="#X"/><use transform="matrix(0.05,0,0,0.05,24.95,0)" xlink:href="#R"/><use transform="matrix(0.05,0,0,0.05,34.95,0)" xlink:href="#X"/><use transform="matrix(0.05,0,0,0.05,44.95,0)" xlink:href="#U"/><use transform="matrix(0.05,0,0,0.05,54.95,0)" xlink:href="#Z"/><use transform="matrix(0.05,0,0,0.05,59.95,0)" xlink:href="#T"/><use transform="matrix(0.05,0,0,0.05,63.900000000000006,0)" xlink:href="#aa"/><use transform="matrix(0.05,0,0,0.05,73.9,0)" xlink:href="#ac"/><use transform="matrix(0.05,0,0,0.05,77.85000000000001,0)" xlink:href="#Y"/></g><path fill="#fff" d="M233-177c-1 41-23 64-60 70L243 0h-38l-65-103H63V0H30v-248c88 3 205-21 203 71zM63-129c60-2 137 13 137-47 0-61-80-42-137-45v92" id="ah"/><g id="k"><use transform="matrix(0.05,0,0,0.05,0,0)" xlink:href="#ah"/><use transform="matrix(0.05,0,0,0.05,12.950000000000001,0)" xlink:href="#X"/><use transform="matrix(0.05,0,0,0.05,22.950000000000003,0)" xlink:href="#ad"/><use transform="matrix(0.05,0,0,0.05,31.950000000000003,0)" xlink:href="#T"/><use transform="matrix(0.05,0,0,0.05,35.900000000000006,0)" xlink:href="#af"/><use transform="matrix(0.05,0,0,0.05,44.900000000000006,0)" xlink:href="#X"/></g><path fill="#fff" d="M143 0L79-87 56-68V0H24v-261h32v163l83-92h37l-77 82L181 0h-38" id="ai"/><g id="l"><use transform="matrix(0.05,0,0,0.05,0,0)" xlink:href="#Z"/><use transform="matrix(0.05,0,0,0.05,5,0)" xlink:href="#W"/><use transform="matrix(0.05,0,0,0.05,15,0)" xlink:href="#ai"/><use transform="matrix(0.05,0,0,0.05,24,0)" xlink:href="#X"/><use transform="matrix(0.05,0,0,0.05,34,0)" xlink:href="#U"/></g><path fill="#fff" d="M212-179c-10-28-35-45-73-45-59 0-87 40-87 99 0 60 29 101 89 101 43 0 62-24 78-52l27 14C228-24 195 4 139 4 59 4 22-46 18-125c-6-104 99-153 187-111 19 9 31 26 39 46" id="aj"/><g id="m"><use transform="matrix(0.05,0,0,0.05,0,0)" xlink:href="#aj"/><use transform="matrix(0.05,0,0,0.05,12.950000000000001,0)" xlink:href="#ag"/><use transform="matrix(0.05,0,0,0.05,18.900000000000002,0)" xlink:href="#X"/><use transform="matrix(0.05,0,0,0.05,28.900000000000002,0)" xlink:href="#aa"/><use transform="matrix(0.05,0,0,0.05,38.900000000000006,0)" xlink:href="#Z"/><use transform="matrix(0.05,0,0,0.05,43.900000000000006,0)" xlink:href="#X"/></g><g id="n"><use transform="matrix(0.05,0,0,0.05,0,0)" xlink:href="#ac"/><use transform="matrix(0.05,0,0,0.05,3.95,0)" xlink:href="#T"/><use transform="matrix(0.05,0,0,0.05,7.9,0)" xlink:href="#U"/><use transform="matrix(0.05,0,0,0.05,17.9,0)" xlink:href="#ai"/></g><path fill="#333" d="M33 0v-248h34V0H33" id="ak"/><path fill="#333" d="M135-143c-3-34-86-38-87 0 15 53 115 12 119 90S17 21 10-45l28-5c4 36 97 45 98 0-10-56-113-15-118-90-4-57 82-63 122-42 12 7 21 19 24 35" id="al"/><g id="o"><use transform="matrix(0.05,0,0,0.05,0,0)" xlink:href="#ak"/><use transform="matrix(0.05,0,0,0.05,5,0)" xlink:href="#al"/></g><path fill="#333" d="M143 0L79-87 56-68V0H24v-261h32v163l83-92h37l-77 82L181 0h-38" id="am"/><g id="p"><use transform="matrix(0.05,0,0,0.05,0,0)" xlink:href="#H"/><use transform="matrix(0.05,0,0,0.05,5,0)" xlink:href="#K"/><use transform="matrix(0.05,0,0,0.05,15,0)" xlink:href="#am"/><use transform="matrix(0.05,0,0,0.05,24,0)" xlink:href="#F"/><use transform="matrix(0.05,0,0,0.05,34,0)" xlink:href="#G"/></g><path fill="#333" d="M85-194c31 0 48 13 60 33l-1-100h32l1 261h-30c-2-10 0-23-3-31C134-8 116 4 85 4 32 4 16-35 15-94c0-66 23-100 70-100zm9 24c-40 0-46 34-46 75 0 40 6 74 45 74 42 0 51-32 51-76 0-42-9-74-50-73" id="an"/><path fill="#333" d="M103-251c84 0 111 97 45 133-19 10-37 24-39 52H78c0-63 77-55 77-114 0-30-21-42-52-43-32 0-53 17-56 46l-32-2c7-45 34-72 88-72zM77 0v-35h34V0H77" id="ao"/><g id="q"><use transform="matrix(0.05,0,0,0.05,0,0)" xlink:href="#J"/><use transform="matrix(0.05,0,0,0.05,9,0)" xlink:href="#P"/><use transform="matrix(0.05,0,0,0.05,19,0)" xlink:href="#D"/><use transform="matrix(0.05,0,0,0.05,22.95,0)" xlink:href="#E"/><use transform="matrix(0.05,0,0,0.05,26.899999999999995,0)" xlink:href="#an"/><use transform="matrix(0.05,0,0,0.05,36.9,0)" xlink:href="#ao"/></g><g id="r"><use transform="matrix(0.05,0,0,0.05,0,0)" xlink:href="#V"/><use transform="matrix(0.05,0,0,0.05,10,0)" xlink:href="#ag"/><use transform="matrix(0.05,0,0,0.05,15.949999999999998,0)" xlink:href="#ab"/><use transform="matrix(0.05,0,0,0.05,25.950000000000003,0)" xlink:href="#ad"/></g><path fill="#fff" d="M155-56V0h-30v-56H8v-25l114-167h33v167h35v25h-35zm-30-156c-27 46-58 90-88 131h88v-131" id="ap"/><path fill="#fff" d="M101-251c68 0 85 55 85 127S166 4 100 4C33 4 14-52 14-124c0-73 17-127 87-127zm-1 229c47 0 54-49 54-102s-4-102-53-102c-51 0-55 48-55 102 0 53 5 102 54 102" id="aq"/><path fill="#fff" d="M126-127c33 6 58 20 58 59 0 88-139 92-164 29-3-8-5-16-6-25l32-3c6 27 21 44 54 44 32 0 52-15 52-46 0-38-36-46-79-43v-28c39 1 72-4 72-42 0-27-17-43-46-43-28 0-47 15-49 41l-32-3c6-42 35-63 81-64 48-1 79 21 79 65 0 36-21 52-52 59" id="ar"/><g id="s"><use transform="matrix(0.05,0,0,0.05,0,0)" xlink:href="#ap"/><use transform="matrix(0.05,0,0,0.05,10,0)" xlink:href="#aq"/><use transform="matrix(0.05,0,0,0.05,20,0)" xlink:href="#ar"/></g><path fill="#fff" d="M63-220v92h138v28H63V0H30v-248h175v28H63" id="as"/><path fill="#fff" d="M115-194c53 0 69 39 70 98 0 66-23 100-70 100C84 3 66-7 56-30L54 0H23l1-261h32v101c10-23 28-34 59-34zm-8 174c40 0 45-34 45-75 0-40-5-75-45-74-42 0-51 32-51 76 0 43 10 73 51 73" id="at"/><g id="t"><use transform="matrix(0.05,0,0,0.05,0,0)" xlink:href="#as"/><use transform="matrix(0.05,0,0,0.05,10.950000000000001,0)" xlink:href="#W"/><use transform="matrix(0.05,0,0,0.05,20.950000000000003,0)" xlink:href="#ag"/><use transform="matrix(0.05,0,0,0.05,26.900000000000002,0)" xlink:href="#at"/><use transform="matrix(0.05,0,0,0.05,36.900000000000006,0)" xlink:href="#T"/><use transform="matrix(0.05,0,0,0.05,40.85000000000001,0)" xlink:href="#R"/><use transform="matrix(0.05,0,0,0.05,50.85000000000001,0)" xlink:href="#R"/><use transform="matrix(0.05,0,0,0.05,60.85,0)" xlink:href="#X"/><use transform="matrix(0.05,0,0,0.05,70.85000000000001,0)" xlink:href="#U"/></g><path fill="#fff" d="M33 0v-248h34V0H33" id="au"/><path fill="#fff" d="M84 4C-5 8 30-112 23-190h32v120c0 31 7 50 39 49 72-2 45-101 50-169h31l1 190h-30c-1-10 1-25-2-33-11 22-28 36-60 37" id="av"/><g id="u"><use transform="matrix(0.05,0,0,0.05,0,0)" xlink:href="#au"/><use transform="matrix(0.05,0,0,0.05,5,0)" xlink:href="#Y"/><use transform="matrix(0.05,0,0,0.05,14,0)" xlink:href="#Y"/><use transform="matrix(0.05,0,0,0.05,23,0)" xlink:href="#av"/><use transform="matrix(0.05,0,0,0.05,33,0)" xlink:href="#X"/></g><g id="v"><use transform="matrix(0.05,0,0,0.05,0,0)" xlink:href="#ah"/><use transform="matrix(0.05,0,0,0.05,12.950000000000001,0)" xlink:href="#X"/><use transform="matrix(0.05,0,0,0.05,22.950000000000003,0)" xlink:href="#ad"/><use transform="matrix(0.05,0,0,0.05,31.950000000000003,0)" xlink:href="#X"/><use transform="matrix(0.05,0,0,0.05,41.95,0)" xlink:href="#T"/><use transform="matrix(0.05,0,0,0.05,45.900000000000006,0)" xlink:href="#af"/><use transform="matrix(0.05,0,0,0.05,54.900000000000006,0)" xlink:href="#X"/></g><path fill="#fff" d="M106-169C34-169 62-67 57 0H25v-261h32l-1 103c12-21 28-36 61-36 89 0 53 116 60 194h-32v-121c2-32-8-49-39-48" id="aw"/><g id="w"><use transform="matrix(0.05,0,0,0.05,0,0)" xlink:href="#aj"/><use transform="matrix(0.05,0,0,0.05,12.950000000000001,0)" xlink:href="#aw"/><use transform="matrix(0.05,0,0,0.05,22.950000000000003,0)" xlink:href="#ag"/><use transform="matrix(0.05,0,0,0.05,28.900000000000002,0)" xlink:href="#T"/><use transform="matrix(0.05,0,0,0.05,32.85,0)" xlink:href="#Y"/><use transform="matrix(0.05,0,0,0.05,41.85,0)" xlink:href="#Z"/><use transform="matrix(0.05,0,0,0.05,46.85,0)" xlink:href="#S"/><use transform="matrix(0.05,0,0,0.05,61.800000000000004,0)" xlink:href="#aa"/><use transform="matrix(0.05,0,0,0.05,71.80000000000001,0)" xlink:href="#Y"/></g><g id="x"><use transform="matrix(0.05,0,0,0.05,0,0)" xlink:href="#aj"/><use transform="matrix(0.05,0,0,0.05,12.950000000000001,0)" xlink:href="#aa"/><use transform="matrix(0.05,0,0,0.05,22.950000000000003,0)" xlink:href="#ag"/><use transform="matrix(0.05,0,0,0.05,28.900000000000002,0)" xlink:href="#R"/></g><path fill="#fff" d="M137 0h-34L2-248h35l83 218 83-218h36" id="ax"/><g id="y"><use transform="matrix(0.05,0,0,0.05,0,0)" xlink:href="#ax"/><use transform="matrix(0.05,0,0,0.05,10.65,0)" xlink:href="#aa"/><use transform="matrix(0.05,0,0,0.05,20.65,0)" xlink:href="#ac"/><use transform="matrix(0.05,0,0,0.05,24.599999999999998,0)" xlink:href="#T"/><use transform="matrix(0.05,0,0,0.05,28.549999999999997,0)" xlink:href="#R"/><use transform="matrix(0.05,0,0,0.05,38.55,0)" xlink:href="#aa"/><use transform="matrix(0.05,0,0,0.05,48.55,0)" xlink:href="#Z"/><use transform="matrix(0.05,0,0,0.05,53.54999999999999,0)" xlink:href="#X"/><use transform="matrix(0.05,0,0,0.05,63.54999999999999,0)" xlink:href="#Y"/></g><g id="z"><use transform="matrix(0.05,0,0,0.05,0,0)" xlink:href="#ad"/><use transform="matrix(0.05,0,0,0.05,9,0)" xlink:href="#ag"/><use transform="matrix(0.05,0,0,0.05,14.949999999999998,0)" xlink:href="#X"/><use transform="matrix(0.05,0,0,0.05,24.95,0)" xlink:href="#R"/><use transform="matrix(0.05,0,0,0.05,34.95,0)" xlink:href="#X"/><use transform="matrix(0.05,0,0,0.05,44.95,0)" xlink:href="#U"/><use transform="matrix(0.05,0,0,0.05,54.95,0)" xlink:href="#Z"/><use transform="matrix(0.05,0,0,0.05,59.95,0)" xlink:href="#T"/><use transform="matrix(0.05,0,0,0.05,63.900000000000006,0)" xlink:href="#aa"/><use transform="matrix(0.05,0,0,0.05,73.9,0)" xlink:href="#ac"/><use transform="matrix(0.05,0,0,0.05,77.85000000000001,0)" xlink:href="#Y"/></g><path fill="#333" d="M146-102V0H94v-102L6-248h54l60 105 60-105h54" id="ay"/><path fill="#333" d="M185-48c-13 30-37 53-82 52C43 2 14-33 14-96s30-98 90-98c62 0 83 45 84 108H66c0 31 8 55 39 56 18 0 30-7 34-22zm-45-69c5-46-57-63-70-21-2 6-4 13-4 21h74" id="az"/><path fill="#333" d="M137-138c1-29-70-34-71-4 15 46 118 7 119 86 1 83-164 76-172 9l43-7c4 19 20 25 44 25 33 8 57-30 24-41C81-84 22-81 20-136c-2-80 154-74 161-7" id="aA"/><g id="A"><use transform="matrix(0.05,0,0,0.05,0,0)" xlink:href="#ay"/><use transform="matrix(0.05,0,0,0.05,11,0)" xlink:href="#az"/><use transform="matrix(0.05,0,0,0.05,21,0)" xlink:href="#aA"/></g><path fill="#333" d="M175 0L67-191c6 58 2 128 3 191H24v-248h59L193-55c-6-58-2-129-3-193h46V0h-61" id="aB"/><path fill="#333" d="M110-194c64 0 96 36 96 99 0 64-35 99-97 99-61 0-95-36-95-99 0-62 34-99 96-99zm-1 164c35 0 45-28 45-65 0-40-10-65-43-65-34 0-45 26-45 65 0 36 10 65 43 65" id="aC"/><g id="B"><use transform="matrix(0.05,0,0,0.05,0,0)" xlink:href="#aB"/><use transform="matrix(0.05,0,0,0.05,12.950000000000001,0)" xlink:href="#aC"/></g></defs></g></svg>