<svg xmlns="http://www.w3.org/2000/svg" xmlns:xlink="http://www.w3.org/1999/xlink" xmlns:lucid="lucid" width="894.49" height="1165.35"><g transform="translate(0 0)" lucid:page-tab-id="0eqBfotfVGlV"><path d="M32 37c0-2.76 2.24-5 5-5h838c2.76 0 5 2.24 5 5v38c0 2.76-2.24 5-5 5H37c-2.76 0-5-2.24-5-5z" fill="none"/><path d="M177.24 145c0-2.76 2.24-5 5-5h150c2.77 0 5 2.24 5 5v110c0 2.76-2.23 5-5 5h-150c-2.76 0-5-2.24-5-5z" stroke="#666" stroke-width="2" fill="#fff"/><use xlink:href="#a" transform="matrix(1,0,0,1,182.24409448818898,145) translate(8.125 58.6)"/><use xlink:href="#b" transform="matrix(1,0,0,1,182.24409448818898,145) translate(100.97500000000001 58.6)"/><path d="M177.24 765c0-2.76 2.24-5 5-5h150c2.77 0 5 2.24 5 5v110c0 2.76-2.23 5-5 5h-150c-2.76 0-5-2.24-5-5z" stroke="#666" stroke-width="2" fill="#fff"/><use xlink:href="#c" transform="matrix(1,0,0,1,182.24409448818898,765) translate(28.125 58.6)"/><path d="M557.24 145c0-2.76 2.24-5 5-5h150c2.77 0 5 2.24 5 5v110c0 2.76-2.23 5-5 5h-150c-2.76 0-5-2.24-5-5z" stroke="#666" stroke-width="2" fill="#fff"/><use xlink:href="#d" transform="matrix(1,0,0,1,562.2440944881889,145) translate(35.599999999999994 58.6)"/><use xlink:href="#e" transform="matrix(1,0,0,1,562.2440944881889,145) translate(96.45 58.6)"/><path d="M413.24 543c2.2-1.66 5.8-1.66 8 0l72 54c2.2 1.66 2.2 4.34 0 6l-72 54c-2.2 1.66-5.8 1.66-8 0l-72-54c-2.2-1.66-2.2-4.34 0-6z" stroke="#666" stroke-width="2" fill="#fff"/><use xlink:href="#f" transform="matrix(1,0,0,1,342.244094488189,545) translate(17.199999999999996 58.6)"/><path d="M257.24 759V605c0-2.76 2.24-5 5-5h76.53M257.24 759v3M338.77 600h3" stroke="#999" stroke-width="2" fill="none"/><path d="M337.24 345c0-2.76 2.24-5 5-5h150c2.77 0 5 2.24 5 5v110c0 2.76-2.23 5-5 5h-150c-2.76 0-5-2.24-5-5z" stroke="#666" stroke-width="2" fill="#fff"/><use xlink:href="#g" transform="matrix(1,0,0,1,342.244094488189,345) translate(48.05 58.6)"/><path d="M417.24 540.75V461M417.24 540.75v3M417.24 461v-3M341.53 339.1v-34.05c0-2.76-2.24-5-5-5h-70c-2.76 0-5-2.24-5-5V261M341.53 339.1v3M261.53 261v-3M495.8 340.1v-34.54c0-2.76 2.25-5 5-5h131.44c2.77 0 5-2.24 5-5V261M495.8 340.1v3M637.24 261v-3" stroke="#999" stroke-width="2" fill="none"/><path d="M477.24 765c0-2.76 2.24-5 5-5h150c2.77 0 5 2.24 5 5v110c0 2.76-2.23 5-5 5h-150c-2.76 0-5-2.24-5-5z" stroke="#666" stroke-width="2" fill="#fff"/><use xlink:href="#h" transform="matrix(1,0,0,1,482.2440944881889,765) translate(25.574999999999996 58.6)"/><path d="M557.24 759V605c0-2.76-2.23-5-5-5h-56.52M557.24 759v3M495.72 600h-3M557.24 939v-58M557.24 939v3M557.24 881v-3" stroke="#999" stroke-width="2" fill="none"/><path d="M477.24 940h155c2.77 0 5 2.24 5 5v110c0 2.76-2.23 5-5 5h-150c-2.76 0-5-2.24-5-5zm16 0v120m-16-104h160" stroke="#666" stroke-width="2" fill="#fff"/><g><use xlink:href="#i" transform="matrix(1,0,0,1,498.2440944881889,961) translate(38.074999999999996 50.6)"/></g><defs><path fill="#333" d="M67-125c0 53 21 87 73 88 37 1 54-22 65-47l45 17C233-25 199 4 140 4 58 4 20-42 15-125 8-235 124-281 211-232c18 10 29 29 36 50l-46 12c-8-25-30-41-62-41-52 0-71 34-72 86" id="j"/><path fill="#333" d="M114-157C55-157 80-60 75 0H25v-261h50l-1 109c12-26 28-41 61-42 86-1 58 113 63 194h-50c-7-57 23-157-34-157" id="k"/><path fill="#333" d="M135-150c-39-12-60 13-60 57V0H25l-1-190h47c2 13-1 29 3 40 6-28 27-53 61-41v41" id="l"/><path fill="#333" d="M25-224v-37h50v37H25zM25 0v-190h50V0H25" id="m"/><path fill="#333" d="M137-138c1-29-70-34-71-4 15 46 118 7 119 86 1 83-164 76-172 9l43-7c4 19 20 25 44 25 33 8 57-30 24-41C81-84 22-81 20-136c-2-80 154-74 161-7" id="n"/><path fill="#333" d="M115-3C79 11 28 4 28-45v-112H4v-33h27l15-45h31v45h36v33H77v99c-1 23 16 31 38 25v30" id="o"/><path fill="#333" d="M220-157c-53 9-28 100-34 157h-49v-107c1-27-5-49-29-50C55-147 81-57 75 0H25l-1-190h47c2 12-1 28 3 38 10-53 101-56 108 0 13-22 24-43 59-42 82 1 51 116 57 194h-49v-107c-1-25-5-48-29-50" id="p"/><path fill="#333" d="M133-34C117-15 103 5 69 4 32 3 11-16 11-54c-1-60 55-63 116-61 1-26-3-47-28-47-18 1-26 9-28 27l-52-2c7-38 36-58 82-57s74 22 75 68l1 82c-1 14 12 18 25 15v27c-30 8-71 5-69-32zm-48 3c29 0 43-24 42-57-32 0-66-3-65 30 0 17 8 27 23 27" id="q"/><g id="a"><use transform="matrix(0.05,0,0,0.05,0,0)" xlink:href="#j"/><use transform="matrix(0.05,0,0,0.05,12.950000000000001,0)" xlink:href="#k"/><use transform="matrix(0.05,0,0,0.05,23.900000000000002,0)" xlink:href="#l"/><use transform="matrix(0.05,0,0,0.05,30.900000000000002,0)" xlink:href="#m"/><use transform="matrix(0.05,0,0,0.05,35.900000000000006,0)" xlink:href="#n"/><use transform="matrix(0.05,0,0,0.05,45.900000000000006,0)" xlink:href="#o"/><use transform="matrix(0.05,0,0,0.05,51.85,0)" xlink:href="#p"/><use transform="matrix(0.05,0,0,0.05,67.85000000000001,0)" xlink:href="#q"/><use transform="matrix(0.05,0,0,0.05,77.85000000000001,0)" xlink:href="#n"/></g><path fill="#333" d="M88-194c31-1 46 15 58 34l-1-101h50l1 261h-48c-2-10 0-23-3-31C134-8 116 4 84 4 32 4 16-41 15-95c0-56 19-97 73-99zm17 164c33 0 40-30 41-66 1-37-9-64-41-64s-38 30-39 65c0 43 13 65 39 65" id="r"/><g id="b"><use transform="matrix(0.05,0,0,0.05,0,0)" xlink:href="#j"/><use transform="matrix(0.05,0,0,0.05,12.950000000000001,0)" xlink:href="#q"/><use transform="matrix(0.05,0,0,0.05,22.950000000000003,0)" xlink:href="#l"/><use transform="matrix(0.05,0,0,0.05,29.950000000000003,0)" xlink:href="#r"/></g><path fill="#333" d="M135-194c53 0 70 44 70 98 0 56-19 98-73 100-31 1-45-17-59-34 3 33 2 69 2 105H25l-1-265h48c2 10 0 23 3 31 11-24 29-35 60-35zM114-30c33 0 39-31 40-66 0-38-9-64-40-64-56 0-55 130 0 130" id="s"/><path fill="#333" d="M14-72v-43h91v43H14" id="t"/><path fill="#333" d="M185-48c-13 30-37 53-82 52C43 2 14-33 14-96s30-98 90-98c62 0 83 45 84 108H66c0 31 8 55 39 56 18 0 30-7 34-22zm-45-69c5-46-57-63-70-21-2 6-4 13-4 21h74" id="u"/><path fill="#333" d="M128 0H69L1-190h53L99-40l48-150h52" id="v"/><g id="c"><use transform="matrix(0.05,0,0,0.05,0,0)" xlink:href="#k"/><use transform="matrix(0.05,0,0,0.05,10.950000000000001,0)" xlink:href="#o"/><use transform="matrix(0.05,0,0,0.05,16.900000000000002,0)" xlink:href="#o"/><use transform="matrix(0.05,0,0,0.05,22.85,0)" xlink:href="#s"/><use transform="matrix(0.05,0,0,0.05,33.800000000000004,0)" xlink:href="#t"/><use transform="matrix(0.05,0,0,0.05,39.75000000000001,0)" xlink:href="#n"/><use transform="matrix(0.05,0,0,0.05,49.75000000000001,0)" xlink:href="#u"/><use transform="matrix(0.05,0,0,0.05,59.75,0)" xlink:href="#l"/><use transform="matrix(0.05,0,0,0.05,66.75,0)" xlink:href="#v"/><use transform="matrix(0.05,0,0,0.05,76.75,0)" xlink:href="#u"/><use transform="matrix(0.05,0,0,0.05,86.75,0)" xlink:href="#l"/></g><path fill="#333" d="M199 0l-22-63H83L61 0H9l90-248h61L250 0h-51zm-33-102l-36-108c-10 38-24 72-36 108h72" id="w"/><path fill="#333" d="M135-194c87-1 58 113 63 194h-50c-7-57 23-157-34-157-59 0-34 97-39 157H25l-1-190h47c2 12-1 28 3 38 12-26 28-41 61-42" id="x"/><g id="d"><use transform="matrix(0.05,0,0,0.05,0,0)" xlink:href="#w"/><use transform="matrix(0.05,0,0,0.05,12.950000000000001,0)" xlink:href="#r"/><use transform="matrix(0.05,0,0,0.05,23.900000000000002,0)" xlink:href="#p"/><use transform="matrix(0.05,0,0,0.05,39.900000000000006,0)" xlink:href="#m"/><use transform="matrix(0.05,0,0,0.05,44.900000000000006,0)" xlink:href="#x"/></g><path fill="#333" d="M238-95c0 69-44 99-111 99C63 4 22-25 22-93v-155h51v151c-1 38 19 59 55 60 90 1 49-130 58-211h52v153" id="y"/><path fill="#333" d="M24 0v-248h52V0H24" id="z"/><g id="e"><use transform="matrix(0.05,0,0,0.05,0,0)" xlink:href="#y"/><use transform="matrix(0.05,0,0,0.05,12.950000000000001,0)" xlink:href="#z"/></g><path fill="#333" d="M85 4C-2 5 27-109 22-190h50c7 57-23 150 33 157 60-5 35-97 40-157h50l1 190h-47c-2-12 1-28-3-38-12 25-28 42-61 42" id="A"/><path fill="#333" d="M110-194c64 0 96 36 96 99 0 64-35 99-97 99-61 0-95-36-95-99 0-62 34-99 96-99zm-1 164c35 0 45-28 45-65 0-40-10-65-43-65-34 0-45 26-45 65 0 36 10 65 43 65" id="B"/><path fill="#333" d="M12 0v-35l95-120H19v-35h142v35L67-36h103V0H12" id="C"/><g id="f"><use transform="matrix(0.05,0,0,0.05,0,0)" xlink:href="#w"/><use transform="matrix(0.05,0,0,0.05,12.950000000000001,0)" xlink:href="#A"/><use transform="matrix(0.05,0,0,0.05,23.900000000000002,0)" xlink:href="#o"/><use transform="matrix(0.05,0,0,0.05,29.85,0)" xlink:href="#k"/><use transform="matrix(0.05,0,0,0.05,40.800000000000004,0)" xlink:href="#B"/><use transform="matrix(0.05,0,0,0.05,51.75,0)" xlink:href="#l"/><use transform="matrix(0.05,0,0,0.05,58.75,0)" xlink:href="#m"/><use transform="matrix(0.05,0,0,0.05,63.75,0)" xlink:href="#C"/><use transform="matrix(0.05,0,0,0.05,72.75,0)" xlink:href="#q"/><use transform="matrix(0.05,0,0,0.05,82.75,0)" xlink:href="#o"/><use transform="matrix(0.05,0,0,0.05,88.7,0)" xlink:href="#m"/><use transform="matrix(0.05,0,0,0.05,93.7,0)" xlink:href="#B"/><use transform="matrix(0.05,0,0,0.05,104.65,0)" xlink:href="#x"/></g><path fill="#333" d="M24 0v-248h195v40H76v63h132v40H76v65h150V0H24" id="D"/><path fill="#333" d="M123 10C108 53 80 86 19 72V37c35 8 53-11 59-39L3-190h52l48 148c12-52 28-100 44-148h51" id="E"/><g id="g"><use transform="matrix(0.05,0,0,0.05,0,0)" xlink:href="#D"/><use transform="matrix(0.05,0,0,0.05,12,0)" xlink:href="#x"/><use transform="matrix(0.05,0,0,0.05,22.950000000000003,0)" xlink:href="#v"/><use transform="matrix(0.05,0,0,0.05,32.95,0)" xlink:href="#B"/><use transform="matrix(0.05,0,0,0.05,43.900000000000006,0)" xlink:href="#E"/></g><path fill="#333" d="M195-6C206 82 75 100 31 46c-4-6-6-13-8-21l49-6c3 16 16 24 34 25 40 0 42-37 40-79-11 22-30 35-61 35-53 0-70-43-70-97 0-56 18-96 73-97 30 0 46 14 59 34l2-30h47zm-90-29c32 0 41-27 41-63 0-35-9-62-40-62-32 0-39 29-40 63 0 36 9 62 39 62" id="F"/><path fill="#333" d="M190-63c-7 42-38 67-86 67-59 0-84-38-90-98-12-110 154-137 174-36l-49 2c-2-19-15-32-35-32-30 0-35 28-38 64-6 74 65 87 74 30" id="G"/><g id="h"><use transform="matrix(0.05,0,0,0.05,0,0)" xlink:href="#F"/><use transform="matrix(0.05,0,0,0.05,10.950000000000001,0)" xlink:href="#l"/><use transform="matrix(0.05,0,0,0.05,17.950000000000003,0)" xlink:href="#s"/><use transform="matrix(0.05,0,0,0.05,28.900000000000006,0)" xlink:href="#G"/><use transform="matrix(0.05,0,0,0.05,38.900000000000006,0)" xlink:href="#t"/><use transform="matrix(0.05,0,0,0.05,44.85000000000001,0)" xlink:href="#n"/><use transform="matrix(0.05,0,0,0.05,54.85,0)" xlink:href="#u"/><use transform="matrix(0.05,0,0,0.05,64.85000000000001,0)" xlink:href="#l"/><use transform="matrix(0.05,0,0,0.05,71.85000000000001,0)" xlink:href="#v"/><use transform="matrix(0.05,0,0,0.05,81.85000000000001,0)" xlink:href="#u"/><use transform="matrix(0.05,0,0,0.05,91.85000000000001,0)" xlink:href="#l"/></g><path fill="#333" d="M84 4C32 4 15-41 15-95c0-55 18-99 73-99 29 0 47 12 58 34l2-30h48l-1 265h-49V-32C136-9 114 4 84 4zm21-34c32 0 41-29 41-66 0-36-9-64-40-64-33 0-39 30-40 65 0 43 13 65 39 65" id="H"/><path fill="#333" d="M25 0v-261h50V0H25" id="I"/><g id="i"><use transform="matrix(0.05,0,0,0.05,0,0)" xlink:href="#n"/><use transform="matrix(0.05,0,0,0.05,10,0)" xlink:href="#H"/><use transform="matrix(0.05,0,0,0.05,20.950000000000003,0)" xlink:href="#I"/><use transform="matrix(0.05,0,0,0.05,25.950000000000003,0)" xlink:href="#t"/><use transform="matrix(0.05,0,0,0.05,31.900000000000002,0)" xlink:href="#I"/><use transform="matrix(0.05,0,0,0.05,36.900000000000006,0)" xlink:href="#m"/><use transform="matrix(0.05,0,0,0.05,41.900000000000006,0)" xlink:href="#o"/><use transform="matrix(0.05,0,0,0.05,47.85000000000001,0)" xlink:href="#u"/></g></defs></g></svg>