<svg xmlns="http://www.w3.org/2000/svg" xmlns:xlink="http://www.w3.org/1999/xlink" xmlns:lucid="lucid" width="1040" height="1180"><g transform="translate(-220 -197.6098689159087)" lucid:page-tab-id="0eqBfotfVGlV"><path d="M240 257.6v-35c0-2.75 2.24-5 5-5h990c2.76 0 5 2.25 5 5v35" fill="#fff"/><path d="M245 257.6c-2.76 0-5-2.23-5-5v-30c0-2.75 2.24-5 5-5h990c2.76 0 5 2.25 5 5v30c0 2.77-2.24 5-5 5z" stroke="#666" fill="none"/><path d="M240 257.6v1095c0 2.77 2.24 5 5 5h990c2.76 0 5-2.23 5-5v-1095M240 257.6h1000M560 217.6v1140M920 217.6v1140" stroke="#666" fill="none"/><use xlink:href="#a" transform="matrix(1,0,0,1,240,217.6098689159087) translate(137.075 23.6)"/><use xlink:href="#b" transform="matrix(1,0,0,1,560,217.6098689159087) translate(155 23.6)"/><use xlink:href="#c" transform="matrix(1,0,0,1,919.9999999999999,217.6098689159087) translate(116.07499999999999 23.6)"/><path d="M460 333.73c22.1 0 40 20.36 40 45.5 0 25.1-17.9 45.48-40 45.48H340c-22.1 0-40-20.36-40-45.48 0-25.13 17.9-45.5 40-45.5z" stroke="#000" stroke-opacity="0" fill="#780000"/><use xlink:href="#d" transform="matrix(1,0,0,1,300,333.72549019607845) translate(22.674999999999997 49.1)"/><use xlink:href="#e" transform="matrix(1,0,0,1,300,333.72549019607845) translate(78.525 49.1)"/><use xlink:href="#f" transform="matrix(1,0,0,1,300,333.72549019607845) translate(150.425 49.1)"/><path d="M320 485c0-2.76 2.24-5 5-5h150c2.76 0 5 2.24 5 5v126.47c0 2.76-2.24 5-5 5H325c-2.76 0-5-2.24-5-5z" stroke="#000" stroke-opacity="0" fill="#c82208"/><use xlink:href="#g" transform="matrix(1,0,0,1,320,480) translate(29.049999999999997 61.3)"/><use xlink:href="#h" transform="matrix(1,0,0,1,320,480) translate(71.95 61.3)"/><use xlink:href="#i" transform="matrix(1,0,0,1,320,480) translate(115.95 61.3)"/><use xlink:href="#j" transform="matrix(1,0,0,1,320,480) translate(29.599999999999994 82.9)"/><use xlink:href="#f" transform="matrix(1,0,0,1,320,480) translate(103.5 82.9)"/><path d="M480 548.24h163.38M480 548.24h-3" stroke="#666" fill="none"/><path d="M658.38 548.24l-14.26 4.63v-9.27z" stroke="#666" fill="#666"/><path d="M660 485c0-2.76 2.24-5 5-5h150c2.76 0 5 2.24 5 5v126.47c0 2.76-2.24 5-5 5H665c-2.76 0-5-2.24-5-5z" stroke="#000" stroke-opacity="0" fill="#e25c18"/><use xlink:href="#k" transform="matrix(1,0,0,1,660,480) translate(2.575000000000003 61.3)"/><use xlink:href="#l" transform="matrix(1,0,0,1,660,480) translate(72.525 61.3)"/><use xlink:href="#m" transform="matrix(1,0,0,1,660,480) translate(121.525 61.3)"/><use xlink:href="#n" transform="matrix(1,0,0,1,660,480) translate(70.05 82.9)"/><path d="M660 705c0-2.76 2.24-5 5-5h150c2.76 0 5 2.24 5 5v126.47c0 2.76-2.24 5-5 5H665c-2.76 0-5-2.24-5-5z" stroke="#000" stroke-opacity="0" fill="#fe9828"/><use xlink:href="#o" transform="matrix(1,0,0,1,660,700) translate(19.099999999999994 72.10000000000001)"/><use xlink:href="#p" transform="matrix(1,0,0,1,660,700) translate(88 72.10000000000001)"/><path d="M736.42 883.1c2.16-1.7 5.66-1.7 7.83 0l92.17 73.4c2.16 1.7 2.16 4.5 0 6.22l-92.17 73.38c-2.17 1.72-5.67 1.72-7.83 0l-92.17-73.38c-2.17-1.72-2.17-4.5 0-6.23z" stroke="#780000" stroke-width="4" fill-opacity="0"/><use xlink:href="#q" transform="matrix(1,0,0,1,662.3333333333,902) translate(20.549999999999997 61.6)"/><use xlink:href="#r" transform="matrix(1,0,0,1,662.3333333333,902) translate(39.55 61.6)"/><use xlink:href="#s" transform="matrix(1,0,0,1,662.3333333333,902) translate(88.55 61.6)"/><path d="M941.17 1074.44l-.28 1.74-1.97 2.68-3.18 1.04H745.3l-1.75-.28-2.68-1.96-1.04-3.18v-35.08h1v34.92l.9 2.72 2.22 1.63 1.42.23H935.6l2.7-.9 1.64-2.22.23-1.42v-63.86h1zm178.1-173.9l1.95 2.68.28 1.74v18.42h-1v-18.34l-.23-1.42-1.63-2.23-2.72-.9h-170.2l-1.44.23-2.22 1.63-.9 2.72v83.82h-1v-83.98l1.05-3.18 2.7-1.96 1.73-.28h170.45z" fill="#666"/><path d="M740.83 1039.4h-1v-3h1zM1121 938.38l-4.64-14.26h9.28z" fill="#666"/><path d="M1121 940l-5.32-16.38h10.64zm-3.95-15.38l3.95 12.14 3.95-12.14z" fill="#666"/><use xlink:href="#t" transform="matrix(1,0,0,1,922.6666666665999,988.8988508475343) translate(0.004999999999999005 14.4)"/><path d="M740.83 1074.48l-1.04 3.18-2.7 1.96-1.73.28H544.92l-3.18-1.04-1.96-2.68-.28-1.74v-23.86h1v23.78l.23 1.42 1.63 2.23 2.72.9h190.2l1.44-.23 2.22-1.63.9-2.72v-34.92h1zm-204.05-94.7l2.68 1.96 1.04 3.18v44.06h-1v-43.9l-.9-2.72-2.22-1.63-1.42-.23H364.9l-2.7.9-1.64 2.22-.23 1.42v18.34h-1v-18.42l.28-1.74 1.97-2.68 3.18-1.04h170.3zM740.83 1039.4h-1v-3h1zM359.83 1018.38l-4.63-14.26h9.27z" fill="#666"/><path d="M359.83 1020l-5.32-16.38h10.66zm-3.94-15.38l3.93 12.14 3.95-12.14z" fill="#666"/><use xlink:href="#u" transform="matrix(1,0,0,1,526.525,1028.9821841808593) translate(0.005000000000000782 14.4)"/><path d="M1041 945c0-2.76 2.24-5 5-5h150c2.76 0 5 2.24 5 5v110c0 2.76-2.24 5-5 5h-150c-2.76 0-5-2.24-5-5z" stroke="#000" stroke-opacity="0" fill="#ffbc44"/><use xlink:href="#v" transform="matrix(1,0,0,1,1040.9999999999,940) translate(37.55 63.6)"/><use xlink:href="#w" transform="matrix(1,0,0,1,1040.9999999999,940) translate(72.55 63.6)"/><path d="M407.73 1020c17.64 0 31.94 17.9 31.94 40s-14.3 40-31.94 40h-95.8c-17.63 0-31.93-17.9-31.93-40s14.3-40 31.93-40z" stroke="#000" stroke-opacity="0" fill="#780000"/><use xlink:href="#x" transform="matrix(1,0,0,1,280,1020) translate(22.074999999999996 44.1)"/><use xlink:href="#y" transform="matrix(1,0,0,1,280,1020) translate(57.074999999999996 44.1)"/><path d="M740 836.47v21.5c0 .1.07.17.17.17s.16.08.16.17v3.28M740 836.47v-3" stroke="#999" stroke-width="2" fill="none"/><path d="M740.33 876.58l-4.63-14.26h9.27z" stroke="#999" stroke-width="2" fill="#999"/><path d="M400 424.7v37.06M400 424.7v-3" stroke="#999" stroke-width="2" fill="none"/><path d="M400 476.76l-4.64-14.26h9.28z" stroke="#999" stroke-width="2" fill="#999"/><path d="M820 548.24h161.76M820 548.24h-3" stroke="#999" stroke-width="2" fill="none"/><path d="M996.76 548.24l-14.26 4.63v-9.27z" stroke="#999" stroke-width="2" fill="#999"/><path d="M1000 485c0-2.76 2.24-5 5-5h150c2.76 0 5 2.24 5 5v126.47c0 2.76-2.24 5-5 5h-150c-2.76 0-5-2.24-5-5z" stroke="#000" stroke-opacity="0" fill="#e25c18"/><g><use xlink:href="#z" transform="matrix(1,0,0,1,1000,480) translate(19.225 72.10000000000001)"/><use xlink:href="#A" transform="matrix(1,0,0,1,1000,480) translate(96.775 72.10000000000001)"/></g><path d="M1080 616.47v146.77c0 2.76-2.24 5-5 5H838.24M1080 616.47v-3" stroke="#999" stroke-width="2" fill="none"/><path d="M823.24 768.24l14.26-4.64v9.27z" stroke="#999" stroke-width="2" fill="#999"/><path d="M407.73 1180c17.64 0 31.94 17.95 31.94 40.08 0 22.14-14.3 40.1-31.94 40.1h-95.8c-17.63 0-31.93-17.96-31.93-40.1 0-22.13 14.3-40.08 31.93-40.08z" stroke="#000" stroke-opacity="0" fill="#780000"/><g><use xlink:href="#B" transform="matrix(1,0,0,1,280,1180) translate(4.6499999999999915 33.3)"/><use xlink:href="#C" transform="matrix(1,0,0,1,280,1180) translate(74.55 33.3)"/><use xlink:href="#D" transform="matrix(1,0,0,1,280,1180) translate(60.55 54.9)"/></g><path d="M1122 1215.24l-1.1 3.4-2.92 2.14-1.9.3H457.9v-2h658.02l1.26-.2 2-1.46.82-2.5V1060h2zM1122 1060h-2v-3h2zM457.17 1224.72l-14.27-4.64 14.27-4.63z" fill="#999"/><path d="M458.17 1226.1l-18.5-6.02 18.5-6zm-12.03-6.02l10.03 3.26v-6.52z" fill="#999"/><defs><path fill="#333" d="M212-179c-10-28-35-45-73-45-59 0-87 40-87 99 0 60 29 101 89 101 43 0 62-24 78-52l27 14C228-24 195 4 139 4 59 4 22-46 18-125c-6-104 99-153 187-111 19 9 31 26 39 46" id="E"/><path fill="#333" d="M24 0v-261h32V0H24" id="F"/><path fill="#333" d="M24-231v-30h32v30H24zM24 0v-190h32V0H24" id="G"/><path fill="#333" d="M100-194c63 0 86 42 84 106H49c0 40 14 67 53 68 26 1 43-12 49-29l28 8c-11 28-37 45-77 45C44 4 14-33 15-96c1-61 26-98 85-98zm52 81c6-60-76-77-97-28-3 7-6 17-6 28h103" id="H"/><path fill="#333" d="M117-194c89-4 53 116 60 194h-32v-121c0-31-8-49-39-48C34-167 62-67 57 0H25l-1-190h30c1 10-1 24 2 32 11-22 29-35 61-36" id="I"/><path fill="#333" d="M59-47c-2 24 18 29 38 22v24C64 9 27 4 27-40v-127H5v-23h24l9-43h21v43h35v23H59v120" id="J"/><g id="a"><use transform="matrix(0.05,0,0,0.05,0,0)" xlink:href="#E"/><use transform="matrix(0.05,0,0,0.05,12.950000000000001,0)" xlink:href="#F"/><use transform="matrix(0.05,0,0,0.05,16.900000000000002,0)" xlink:href="#G"/><use transform="matrix(0.05,0,0,0.05,20.85,0)" xlink:href="#H"/><use transform="matrix(0.05,0,0,0.05,30.85,0)" xlink:href="#I"/><use transform="matrix(0.05,0,0,0.05,40.85,0)" xlink:href="#J"/></g><path fill="#333" d="M30 0v-248h187v28H63v79h144v27H63v87h162V0H30" id="K"/><path fill="#333" d="M108 0H70L1-190h34L89-25l56-165h34" id="L"/><path fill="#333" d="M100-194c62-1 85 37 85 99 1 63-27 99-86 99S16-35 15-95c0-66 28-99 85-99zM99-20c44 1 53-31 53-75 0-43-8-75-51-75s-53 32-53 75 10 74 51 75" id="M"/><path fill="#333" d="M179-190L93 31C79 59 56 82 12 73V49c39 6 53-20 64-50L1-190h34L92-34l54-156h33" id="N"/><g id="b"><use transform="matrix(0.05,0,0,0.05,0,0)" xlink:href="#K"/><use transform="matrix(0.05,0,0,0.05,12,0)" xlink:href="#I"/><use transform="matrix(0.05,0,0,0.05,22,0)" xlink:href="#L"/><use transform="matrix(0.05,0,0,0.05,31,0)" xlink:href="#M"/><use transform="matrix(0.05,0,0,0.05,41,0)" xlink:href="#N"/></g><path fill="#333" d="M205 0l-28-72H64L36 0H1l101-248h38L239 0h-34zm-38-99l-47-123c-12 45-31 82-46 123h93" id="O"/><path fill="#333" d="M115-194c55 1 70 41 70 98S169 2 115 4C84 4 66-9 55-30l1 105H24l-1-265h31l2 30c10-21 28-34 59-34zm-8 174c40 0 45-34 45-75s-6-73-45-74c-42 0-51 32-51 76 0 43 10 73 51 73" id="P"/><path fill="#333" d="M96-169c-40 0-48 33-48 73s9 75 48 75c24 0 41-14 43-38l32 2c-6 37-31 61-74 61-59 0-76-41-82-99-10-93 101-131 147-64 4 7 5 14 7 22l-32 3c-4-21-16-35-41-35" id="Q"/><path fill="#333" d="M141-36C126-15 110 5 73 4 37 3 15-17 15-53c-1-64 63-63 125-63 3-35-9-54-41-54-24 1-41 7-42 31l-33-3c5-37 33-52 76-52 45 0 72 20 72 64v82c-1 20 7 32 28 27v20c-31 9-61-2-59-35zM48-53c0 20 12 33 32 33 41-3 63-29 60-74-43 2-92-5-92 41" id="R"/><g id="c"><use transform="matrix(0.05,0,0,0.05,0,0)" xlink:href="#O"/><use transform="matrix(0.05,0,0,0.05,12,0)" xlink:href="#P"/><use transform="matrix(0.05,0,0,0.05,22,0)" xlink:href="#P"/><use transform="matrix(0.05,0,0,0.05,32,0)" xlink:href="#F"/><use transform="matrix(0.05,0,0,0.05,35.95,0)" xlink:href="#G"/><use transform="matrix(0.05,0,0,0.05,39.900000000000006,0)" xlink:href="#Q"/><use transform="matrix(0.05,0,0,0.05,48.900000000000006,0)" xlink:href="#R"/><use transform="matrix(0.05,0,0,0.05,58.900000000000006,0)" xlink:href="#J"/><use transform="matrix(0.05,0,0,0.05,63.900000000000006,0)" xlink:href="#G"/><use transform="matrix(0.05,0,0,0.05,67.85000000000001,0)" xlink:href="#M"/><use transform="matrix(0.05,0,0,0.05,77.85000000000001,0)" xlink:href="#I"/></g><path fill="#fff" d="M63-220v92h138v28H63V0H30v-248h175v28H63" id="S"/><path fill="#fff" d="M114-163C36-179 61-72 57 0H25l-1-190h30c1 12-1 29 2 39 6-27 23-49 58-41v29" id="T"/><path fill="#fff" d="M24-231v-30h32v30H24zM24 0v-190h32V0H24" id="U"/><path fill="#fff" d="M100-194c63 0 86 42 84 106H49c0 40 14 67 53 68 26 1 43-12 49-29l28 8c-11 28-37 45-77 45C44 4 14-33 15-96c1-61 26-98 85-98zm52 81c6-60-76-77-97-28-3 7-6 17-6 28h103" id="V"/><path fill="#fff" d="M117-194c89-4 53 116 60 194h-32v-121c0-31-8-49-39-48C34-167 62-67 57 0H25l-1-190h30c1 10-1 24 2 32 11-22 29-35 61-36" id="W"/><path fill="#fff" d="M85-194c31 0 48 13 60 33l-1-100h32l1 261h-30c-2-10 0-23-3-31C134-8 116 4 85 4 32 4 16-35 15-94c0-66 23-100 70-100zm9 24c-40 0-46 34-46 75 0 40 6 74 45 74 42 0 51-32 51-76 0-42-9-74-50-73" id="X"/><g id="d"><use transform="matrix(0.05,0,0,0.05,0,0)" xlink:href="#S"/><use transform="matrix(0.05,0,0,0.05,10.950000000000001,0)" xlink:href="#T"/><use transform="matrix(0.05,0,0,0.05,16.900000000000002,0)" xlink:href="#U"/><use transform="matrix(0.05,0,0,0.05,20.85,0)" xlink:href="#V"/><use transform="matrix(0.05,0,0,0.05,30.85,0)" xlink:href="#W"/><use transform="matrix(0.05,0,0,0.05,40.85,0)" xlink:href="#X"/></g><path fill="#fff" d="M96-169c-40 0-48 33-48 73s9 75 48 75c24 0 41-14 43-38l32 2c-6 37-31 61-74 61-59 0-76-41-82-99-10-93 101-131 147-64 4 7 5 14 7 22l-32 3c-4-21-16-35-41-35" id="Y"/><path fill="#fff" d="M108 0H70L1-190h34L89-25l56-165h34" id="Z"/><path fill="#fff" d="M135-143c-3-34-86-38-87 0 15 53 115 12 119 90S17 21 10-45l28-5c4 36 97 45 98 0-10-56-113-15-118-90-4-57 82-63 122-42 12 7 21 19 24 35" id="aa"/><g id="e"><use transform="matrix(0.05,0,0,0.05,0,0)" xlink:href="#T"/><use transform="matrix(0.05,0,0,0.05,5.95,0)" xlink:href="#V"/><use transform="matrix(0.05,0,0,0.05,15.949999999999998,0)" xlink:href="#Y"/><use transform="matrix(0.05,0,0,0.05,24.95,0)" xlink:href="#V"/><use transform="matrix(0.05,0,0,0.05,34.95,0)" xlink:href="#U"/><use transform="matrix(0.05,0,0,0.05,38.900000000000006,0)" xlink:href="#Z"/><use transform="matrix(0.05,0,0,0.05,47.900000000000006,0)" xlink:href="#V"/><use transform="matrix(0.05,0,0,0.05,57.900000000000006,0)" xlink:href="#aa"/></g><path fill="#fff" d="M24 0v-261h32V0H24" id="ab"/><path fill="#fff" d="M143 0L79-87 56-68V0H24v-261h32v163l83-92h37l-77 82L181 0h-38" id="ac"/><g id="f"><use transform="matrix(0.05,0,0,0.05,0,0)" xlink:href="#ab"/><use transform="matrix(0.05,0,0,0.05,3.95,0)" xlink:href="#U"/><use transform="matrix(0.05,0,0,0.05,7.9,0)" xlink:href="#W"/><use transform="matrix(0.05,0,0,0.05,17.9,0)" xlink:href="#ac"/></g><path fill="#fff" d="M232-93c-1 65-40 97-104 97C67 4 28-28 28-90v-158h33c8 89-33 224 67 224 102 0 64-133 71-224h33v155" id="ad"/><g id="g"><use transform="matrix(0.05,0,0,0.05,0,0)" xlink:href="#ad"/><use transform="matrix(0.05,0,0,0.05,12.950000000000001,0)" xlink:href="#aa"/><use transform="matrix(0.05,0,0,0.05,21.950000000000003,0)" xlink:href="#V"/><use transform="matrix(0.05,0,0,0.05,31.950000000000003,0)" xlink:href="#T"/></g><path fill="#fff" d="M177-190C167-65 218 103 67 71c-23-6-38-20-44-43l32-5c15 47 100 32 89-28v-30C133-14 115 1 83 1 29 1 15-40 15-95c0-56 16-97 71-98 29-1 48 16 59 35 1-10 0-23 2-32h30zM94-22c36 0 50-32 50-73 0-42-14-75-50-75-39 0-46 34-46 75s6 73 46 73" id="ae"/><path fill="#fff" d="M100-194c62-1 85 37 85 99 1 63-27 99-86 99S16-35 15-95c0-66 28-99 85-99zM99-20c44 1 53-31 53-75 0-43-8-75-51-75s-53 32-53 75 10 74 51 75" id="af"/><g id="h"><use transform="matrix(0.05,0,0,0.05,0,0)" xlink:href="#ae"/><use transform="matrix(0.05,0,0,0.05,10,0)" xlink:href="#af"/><use transform="matrix(0.05,0,0,0.05,20,0)" xlink:href="#V"/><use transform="matrix(0.05,0,0,0.05,30,0)" xlink:href="#aa"/></g><path fill="#fff" d="M59-47c-2 24 18 29 38 22v24C64 9 27 4 27-40v-127H5v-23h24l9-43h21v43h35v23H59v120" id="ag"/><g id="i"><use transform="matrix(0.05,0,0,0.05,0,0)" xlink:href="#ag"/><use transform="matrix(0.05,0,0,0.05,5,0)" xlink:href="#af"/></g><path fill="#fff" d="M115-194c55 1 70 41 70 98S169 2 115 4C84 4 66-9 55-30l1 105H24l-1-265h31l2 30c10-21 28-34 59-34zm-8 174c40 0 45-34 45-75s-6-73-45-74c-42 0-51 32-51 76 0 43 10 73 51 73" id="ah"/><g id="j"><use transform="matrix(0.05,0,0,0.05,0,0)" xlink:href="#ah"/><use transform="matrix(0.05,0,0,0.05,10,0)" xlink:href="#T"/><use transform="matrix(0.05,0,0,0.05,15.949999999999998,0)" xlink:href="#af"/><use transform="matrix(0.05,0,0,0.05,25.950000000000003,0)" xlink:href="#Z"/><use transform="matrix(0.05,0,0,0.05,34.95,0)" xlink:href="#U"/><use transform="matrix(0.05,0,0,0.05,38.900000000000006,0)" xlink:href="#X"/><use transform="matrix(0.05,0,0,0.05,48.900000000000006,0)" xlink:href="#V"/><use transform="matrix(0.05,0,0,0.05,58.900000000000006,0)" xlink:href="#X"/></g><path fill="#fff" d="M30 0v-248h187v28H63v79h144v27H63v87h162V0H30" id="ai"/><path fill="#fff" d="M141 0L90-78 38 0H4l68-98-65-92h35l48 74 47-74h35l-64 92 68 98h-35" id="aj"/><path fill="#fff" d="M141-36C126-15 110 5 73 4 37 3 15-17 15-53c-1-64 63-63 125-63 3-35-9-54-41-54-24 1-41 7-42 31l-33-3c5-37 33-52 76-52 45 0 72 20 72 64v82c-1 20 7 32 28 27v20c-31 9-61-2-59-35zM48-53c0 20 12 33 32 33 41-3 63-29 60-74-43 2-92-5-92 41" id="ak"/><g id="k"><use transform="matrix(0.05,0,0,0.05,0,0)" xlink:href="#ai"/><use transform="matrix(0.05,0,0,0.05,12,0)" xlink:href="#aj"/><use transform="matrix(0.05,0,0,0.05,21,0)" xlink:href="#ag"/><use transform="matrix(0.05,0,0,0.05,26,0)" xlink:href="#T"/><use transform="matrix(0.05,0,0,0.05,31.950000000000003,0)" xlink:href="#ak"/><use transform="matrix(0.05,0,0,0.05,41.95,0)" xlink:href="#Y"/><use transform="matrix(0.05,0,0,0.05,50.95,0)" xlink:href="#ag"/><use transform="matrix(0.05,0,0,0.05,55.95,0)" xlink:href="#aa"/></g><g id="l"><use transform="matrix(0.05,0,0,0.05,0,0)" xlink:href="#ag"/><use transform="matrix(0.05,0,0,0.05,5,0)" xlink:href="#af"/><use transform="matrix(0.05,0,0,0.05,15,0)" xlink:href="#ac"/><use transform="matrix(0.05,0,0,0.05,24,0)" xlink:href="#V"/><use transform="matrix(0.05,0,0,0.05,34,0)" xlink:href="#W"/></g><path fill="#fff" d="M101-234c-31-9-42 10-38 44h38v23H63V0H32v-167H5v-23h27c-7-52 17-82 69-68v24" id="al"/><path fill="#fff" d="M210-169c-67 3-38 105-44 169h-31v-121c0-29-5-50-35-48C34-165 62-65 56 0H25l-1-190h30c1 10-1 24 2 32 10-44 99-50 107 0 11-21 27-35 58-36 85-2 47 119 55 194h-31v-121c0-29-5-49-35-48" id="am"/><g id="m"><use transform="matrix(0.05,0,0,0.05,0,0)" xlink:href="#al"/><use transform="matrix(0.05,0,0,0.05,5,0)" xlink:href="#T"/><use transform="matrix(0.05,0,0,0.05,10.95,0)" xlink:href="#af"/><use transform="matrix(0.05,0,0,0.05,20.95,0)" xlink:href="#am"/></g><path fill="#fff" d="M84 4C-5 8 30-112 23-190h32v120c0 31 7 50 39 49 72-2 45-101 50-169h31l1 190h-30c-1-10 1-25-2-33-11 22-28 36-60 37" id="an"/><g id="n"><use transform="matrix(0.05,0,0,0.05,0,0)" xlink:href="#an"/><use transform="matrix(0.05,0,0,0.05,10,0)" xlink:href="#T"/><use transform="matrix(0.05,0,0,0.05,15.949999999999998,0)" xlink:href="#ab"/></g><path fill="#fff" d="M233-177c-1 41-23 64-60 70L243 0h-38l-65-103H63V0H30v-248c88 3 205-21 203 71zM63-129c60-2 137 13 137-47 0-61-80-42-137-45v92" id="ao"/><g id="o"><use transform="matrix(0.05,0,0,0.05,0,0)" xlink:href="#ao"/><use transform="matrix(0.05,0,0,0.05,12.950000000000001,0)" xlink:href="#V"/><use transform="matrix(0.05,0,0,0.05,22.950000000000003,0)" xlink:href="#Y"/><use transform="matrix(0.05,0,0,0.05,31.950000000000003,0)" xlink:href="#U"/><use transform="matrix(0.05,0,0,0.05,35.900000000000006,0)" xlink:href="#Z"/><use transform="matrix(0.05,0,0,0.05,44.900000000000006,0)" xlink:href="#V"/><use transform="matrix(0.05,0,0,0.05,54.900000000000006,0)" xlink:href="#aa"/></g><g id="p"><use transform="matrix(0.05,0,0,0.05,0,0)" xlink:href="#T"/><use transform="matrix(0.05,0,0,0.05,5.95,0)" xlink:href="#V"/><use transform="matrix(0.05,0,0,0.05,15.949999999999998,0)" xlink:href="#aa"/><use transform="matrix(0.05,0,0,0.05,24.95,0)" xlink:href="#an"/><use transform="matrix(0.05,0,0,0.05,34.95,0)" xlink:href="#ab"/><use transform="matrix(0.05,0,0,0.05,38.900000000000006,0)" xlink:href="#ag"/><use transform="matrix(0.05,0,0,0.05,43.900000000000006,0)" xlink:href="#aa"/></g><path fill="#333" d="M33 0v-248h34V0H33" id="ap"/><path fill="#333" d="M135-143c-3-34-86-38-87 0 15 53 115 12 119 90S17 21 10-45l28-5c4 36 97 45 98 0-10-56-113-15-118-90-4-57 82-63 122-42 12 7 21 19 24 35" id="aq"/><g id="q"><use transform="matrix(0.05,0,0,0.05,0,0)" xlink:href="#ap"/><use transform="matrix(0.05,0,0,0.05,5,0)" xlink:href="#aq"/></g><path fill="#333" d="M143 0L79-87 56-68V0H24v-261h32v163l83-92h37l-77 82L181 0h-38" id="ar"/><g id="r"><use transform="matrix(0.05,0,0,0.05,0,0)" xlink:href="#J"/><use transform="matrix(0.05,0,0,0.05,5,0)" xlink:href="#M"/><use transform="matrix(0.05,0,0,0.05,15,0)" xlink:href="#ar"/><use transform="matrix(0.05,0,0,0.05,24,0)" xlink:href="#H"/><use transform="matrix(0.05,0,0,0.05,34,0)" xlink:href="#I"/></g><path fill="#333" d="M85-194c31 0 48 13 60 33l-1-100h32l1 261h-30c-2-10 0-23-3-31C134-8 116 4 85 4 32 4 16-35 15-94c0-66 23-100 70-100zm9 24c-40 0-46 34-46 75 0 40 6 74 45 74 42 0 51-32 51-76 0-42-9-74-50-73" id="as"/><path fill="#333" d="M103-251c84 0 111 97 45 133-19 10-37 24-39 52H78c0-63 77-55 77-114 0-30-21-42-52-43-32 0-53 17-56 46l-32-2c7-45 34-72 88-72zM77 0v-35h34V0H77" id="at"/><g id="s"><use transform="matrix(0.05,0,0,0.05,0,0)" xlink:href="#L"/><use transform="matrix(0.05,0,0,0.05,9,0)" xlink:href="#R"/><use transform="matrix(0.05,0,0,0.05,19,0)" xlink:href="#F"/><use transform="matrix(0.05,0,0,0.05,22.95,0)" xlink:href="#G"/><use transform="matrix(0.05,0,0,0.05,26.899999999999995,0)" xlink:href="#as"/><use transform="matrix(0.05,0,0,0.05,36.9,0)" xlink:href="#at"/></g><path fill="#333" d="M146-102V0H94v-102L6-248h54l60 105 60-105h54" id="au"/><path fill="#333" d="M24 0v-248h195v40H76v63h132v40H76v65h150V0H24" id="av"/><path fill="#333" d="M169-182c-1-43-94-46-97-3 18 66 151 10 154 114 3 95-165 93-204 36-6-8-10-19-12-30l50-8c3 46 112 56 116 5-17-69-150-10-154-114-4-87 153-88 188-35 5 8 8 18 10 28" id="aw"/><g id="t"><use transform="matrix(0.05,0,0,0.05,0,0)" xlink:href="#au"/><use transform="matrix(0.05,0,0,0.05,12,0)" xlink:href="#av"/><use transform="matrix(0.05,0,0,0.05,24,0)" xlink:href="#aw"/></g><path fill="#333" d="M175 0L67-191c6 58 2 128 3 191H24v-248h59L193-55c-6-58-2-129-3-193h46V0h-61" id="ax"/><path fill="#333" d="M140-251c80 0 125 45 125 126S219 4 139 4C58 4 15-44 15-125s44-126 125-126zm-1 214c52 0 73-35 73-88 0-50-21-86-72-86-52 0-73 35-73 86s22 88 72 88" id="ay"/><g id="u"><use transform="matrix(0.05,0,0,0.05,0,0)" xlink:href="#ax"/><use transform="matrix(0.05,0,0,0.05,12.950000000000001,0)" xlink:href="#ay"/></g><path fill="#fff" d="M106-169C34-169 62-67 57 0H25v-261h32l-1 103c12-21 28-36 61-36 89 0 53 116 60 194h-32v-121c2-32-8-49-39-48" id="az"/><g id="v"><use transform="matrix(0.05,0,0,0.05,0,0)" xlink:href="#az"/><use transform="matrix(0.05,0,0,0.05,10,0)" xlink:href="#ag"/><use transform="matrix(0.05,0,0,0.05,15,0)" xlink:href="#ag"/><use transform="matrix(0.05,0,0,0.05,20,0)" xlink:href="#ah"/></g><g id="w"><use transform="matrix(0.05,0,0,0.05,0,0)" xlink:href="#aa"/><use transform="matrix(0.05,0,0,0.05,9,0)" xlink:href="#V"/><use transform="matrix(0.05,0,0,0.05,19,0)" xlink:href="#T"/><use transform="matrix(0.05,0,0,0.05,24.95,0)" xlink:href="#Z"/><use transform="matrix(0.05,0,0,0.05,33.95,0)" xlink:href="#V"/><use transform="matrix(0.05,0,0,0.05,43.95,0)" xlink:href="#T"/></g><path fill="#fff" d="M155-56V0h-30v-56H8v-25l114-167h33v167h35v25h-35zm-30-156c-27 46-58 90-88 131h88v-131" id="aA"/><path fill="#fff" d="M101-251c68 0 85 55 85 127S166 4 100 4C33 4 14-52 14-124c0-73 17-127 87-127zm-1 229c47 0 54-49 54-102s-4-102-53-102c-51 0-55 48-55 102 0 53 5 102 54 102" id="aB"/><path fill="#fff" d="M126-127c33 6 58 20 58 59 0 88-139 92-164 29-3-8-5-16-6-25l32-3c6 27 21 44 54 44 32 0 52-15 52-46 0-38-36-46-79-43v-28c39 1 72-4 72-42 0-27-17-43-46-43-28 0-47 15-49 41l-32-3c6-42 35-63 81-64 48-1 79 21 79 65 0 36-21 52-52 59" id="aC"/><g id="x"><use transform="matrix(0.05,0,0,0.05,0,0)" xlink:href="#aA"/><use transform="matrix(0.05,0,0,0.05,10,0)" xlink:href="#aB"/><use transform="matrix(0.05,0,0,0.05,20,0)" xlink:href="#aC"/></g><path fill="#fff" d="M115-194c53 0 69 39 70 98 0 66-23 100-70 100C84 3 66-7 56-30L54 0H23l1-261h32v101c10-23 28-34 59-34zm-8 174c40 0 45-34 45-75 0-40-5-75-45-74-42 0-51 32-51 76 0 43 10 73 51 73" id="aD"/><g id="y"><use transform="matrix(0.05,0,0,0.05,0,0)" xlink:href="#S"/><use transform="matrix(0.05,0,0,0.05,10.950000000000001,0)" xlink:href="#af"/><use transform="matrix(0.05,0,0,0.05,20.950000000000003,0)" xlink:href="#T"/><use transform="matrix(0.05,0,0,0.05,26.900000000000002,0)" xlink:href="#aD"/><use transform="matrix(0.05,0,0,0.05,36.900000000000006,0)" xlink:href="#U"/><use transform="matrix(0.05,0,0,0.05,40.85000000000001,0)" xlink:href="#X"/><use transform="matrix(0.05,0,0,0.05,50.85000000000001,0)" xlink:href="#X"/><use transform="matrix(0.05,0,0,0.05,60.85,0)" xlink:href="#V"/><use transform="matrix(0.05,0,0,0.05,70.85000000000001,0)" xlink:href="#W"/></g><path fill="#fff" d="M137 0h-34L2-248h35l83 218 83-218h36" id="aE"/><g id="z"><use transform="matrix(0.05,0,0,0.05,0,0)" xlink:href="#aE"/><use transform="matrix(0.05,0,0,0.05,10.65,0)" xlink:href="#ak"/><use transform="matrix(0.05,0,0,0.05,20.65,0)" xlink:href="#ab"/><use transform="matrix(0.05,0,0,0.05,24.599999999999998,0)" xlink:href="#U"/><use transform="matrix(0.05,0,0,0.05,28.549999999999997,0)" xlink:href="#X"/><use transform="matrix(0.05,0,0,0.05,38.55,0)" xlink:href="#ak"/><use transform="matrix(0.05,0,0,0.05,48.55,0)" xlink:href="#ag"/><use transform="matrix(0.05,0,0,0.05,53.54999999999999,0)" xlink:href="#V"/><use transform="matrix(0.05,0,0,0.05,63.54999999999999,0)" xlink:href="#aa"/></g><g id="A"><use transform="matrix(0.05,0,0,0.05,0,0)" xlink:href="#ag"/><use transform="matrix(0.05,0,0,0.05,5,0)" xlink:href="#af"/><use transform="matrix(0.05,0,0,0.05,15,0)" xlink:href="#ac"/><use transform="matrix(0.05,0,0,0.05,24,0)" xlink:href="#V"/><use transform="matrix(0.05,0,0,0.05,34,0)" xlink:href="#W"/></g><g id="B"><use transform="matrix(0.05,0,0,0.05,0,0)" xlink:href="#ao"/><use transform="matrix(0.05,0,0,0.05,12.950000000000001,0)" xlink:href="#V"/><use transform="matrix(0.05,0,0,0.05,22.950000000000003,0)" xlink:href="#Y"/><use transform="matrix(0.05,0,0,0.05,31.950000000000003,0)" xlink:href="#V"/><use transform="matrix(0.05,0,0,0.05,41.95,0)" xlink:href="#U"/><use transform="matrix(0.05,0,0,0.05,45.900000000000006,0)" xlink:href="#Z"/><use transform="matrix(0.05,0,0,0.05,54.900000000000006,0)" xlink:href="#V"/></g><path fill="#fff" d="M212-179c-10-28-35-45-73-45-59 0-87 40-87 99 0 60 29 101 89 101 43 0 62-24 78-52l27 14C228-24 195 4 139 4 59 4 22-46 18-125c-6-104 99-153 187-111 19 9 31 26 39 46" id="aF"/><g id="C"><use transform="matrix(0.05,0,0,0.05,0,0)" xlink:href="#aF"/><use transform="matrix(0.05,0,0,0.05,12.950000000000001,0)" xlink:href="#az"/><use transform="matrix(0.05,0,0,0.05,22.950000000000003,0)" xlink:href="#T"/><use transform="matrix(0.05,0,0,0.05,28.900000000000002,0)" xlink:href="#U"/><use transform="matrix(0.05,0,0,0.05,32.85,0)" xlink:href="#aa"/><use transform="matrix(0.05,0,0,0.05,41.85,0)" xlink:href="#ag"/><use transform="matrix(0.05,0,0,0.05,46.85,0)" xlink:href="#am"/><use transform="matrix(0.05,0,0,0.05,61.800000000000004,0)" xlink:href="#ak"/><use transform="matrix(0.05,0,0,0.05,71.80000000000001,0)" xlink:href="#aa"/></g><g id="D"><use transform="matrix(0.05,0,0,0.05,0,0)" xlink:href="#aF"/><use transform="matrix(0.05,0,0,0.05,12.950000000000001,0)" xlink:href="#ak"/><use transform="matrix(0.05,0,0,0.05,22.950000000000003,0)" xlink:href="#T"/><use transform="matrix(0.05,0,0,0.05,28.900000000000002,0)" xlink:href="#X"/></g></defs></g></svg>